<svg xmlns="http://www.w3.org/2000/svg" viewBox="0 0 560 360" role="img"><title>材料参数比较矩阵</title><desc>固定参数 material-seed-31 生成的三种候选材料标准化指标和默认排序。</desc><rect width="560" height="360" rx="14" fill="#f4f5f2"/><text x="28" y="34" fill="#26303a" font-family="Arial, sans-serif" font-size="16" font-weight="700">材料参数比较矩阵</text><text x="28" y="55" fill="#65707b" font-family="Arial, sans-serif" font-size="11">固定种子合成数据 · 教学预览 · v1.0</text><text x="156" y="92" text-anchor="middle" fill="#65707b" font-family="Arial, sans-serif" font-size="10">灵敏度</text><text x="226" y="92" text-anchor="middle" fill="#65707b" font-family="Arial, sans-serif" font-size="10">耐久性</text><text x="296" y="92" text-anchor="middle" fill="#65707b" font-family="Arial, sans-serif" font-size="10">环境范围</text><text x="366" y="92" text-anchor="middle" fill="#65707b" font-family="Arial, sans-serif" font-size="10">成本</text><text x="56" y="132" text-anchor="middle" fill="#26303a" font-family="Arial, sans-serif" font-size="12" font-weight="700">A</text><rect x="121" y="112" width="70" height="46" transform="translate(0 0)" fill="rgb(171,181,175)"/><text x="156" y="141" transform="translate(0 0)" text-anchor="middle" fill="#26303a" font-family="Arial, sans-serif" font-size="12" font-weight="700">0.82</text><rect x="121" y="112" width="70" height="46" transform="translate(70 0)" fill="rgb(183,193,187)"/><text x="226" y="141" transform="translate(0 0)" text-anchor="middle" fill="#26303a" font-family="Arial, sans-serif" font-size="12" font-weight="700">0.62</text><rect x="121" y="112" width="70" height="46" transform="translate(140 0)" fill="rgb(187,197,191)"/><text x="296" y="141" transform="translate(0 0)" text-anchor="middle" fill="#26303a" font-family="Arial, sans-serif" font-size="12" font-weight="700">0.55</text><rect x="121" y="112" width="70" height="46" transform="translate(210 0)" fill="rgb(177,187,181)"/><text x="366" y="141" transform="translate(0 0)" text-anchor="middle" fill="#26303a" font-family="Arial, sans-serif" font-size="12" font-weight="700">0.71</text><text x="56" y="132" text-anchor="middle" fill="#26303a" font-family="Arial, sans-serif" font-size="12" font-weight="700">B</text><rect x="121" y="112" width="70" height="46" transform="translate(0 51)" fill="rgb(182,192,186)"/><text x="156" y="141" transform="translate(0 51)" text-anchor="middle" fill="#26303a" font-family="Arial, sans-serif" font-size="12" font-weight="700">0.64</text><rect x="121" y="112" width="70" height="46" transform="translate(70 51)" fill="rgb(167,177,171)"/><text x="226" y="141" transform="translate(0 51)" text-anchor="middle" fill="#26303a" font-family="Arial, sans-serif" font-size="12" font-weight="700">0.88</text><rect x="121" y="112" width="70" height="46" transform="translate(140 51)" fill="rgb(176,186,180)"/><text x="296" y="141" transform="translate(0 51)" text-anchor="middle" fill="#26303a" font-family="Arial, sans-serif" font-size="12" font-weight="700">0.73</text><rect x="121" y="112" width="70" height="46" transform="translate(210 51)" fill="rgb(191,201,195)"/><text x="366" y="141" transform="translate(0 51)" text-anchor="middle" fill="#26303a" font-family="Arial, sans-serif" font-size="12" font-weight="700">0.48</text><text x="56" y="132" text-anchor="middle" fill="#26303a" font-family="Arial, sans-serif" font-size="12" font-weight="700">C</text><rect x="121" y="112" width="70" height="46" transform="translate(0 102)" fill="rgb(189,199,193)"/><text x="156" y="141" transform="translate(0 102)" text-anchor="middle" fill="#26303a" font-family="Arial, sans-serif" font-size="12" font-weight="700">0.51</text><rect x="121" y="112" width="70" height="46" transform="translate(70 102)" fill="rgb(185,195,189)"/><text x="226" y="141" transform="translate(0 102)" text-anchor="middle" fill="#26303a" font-family="Arial, sans-serif" font-size="12" font-weight="700">0.58</text><rect x="121" y="112" width="70" height="46" transform="translate(140 102)" fill="rgb(165,175,169)"/><text x="296" y="141" transform="translate(0 102)" text-anchor="middle" fill="#26303a" font-family="Arial, sans-serif" font-size="12" font-weight="700">0.91</text><rect x="121" y="112" width="70" height="46" transform="translate(210 102)" fill="rgb(173,183,177)"/><text x="366" y="141" transform="translate(0 102)" text-anchor="middle" fill="#26303a" font-family="Arial, sans-serif" font-size="12" font-weight="700">0.78</text><text x="28" y="292" fill="#26303a" font-family="Arial, sans-serif" font-size="12" font-weight="700">默认权重排序：A → B → C</text><text x="28" y="313" fill="#65707b" font-family="Arial, sans-serif" font-size="11">改变权重后需重新检查，矩阵不是认证结论。</text></svg>