<svg xmlns="http://www.w3.org/2000/svg" viewBox="0 0 560 360" role="img"><title>把样本和约束摆在一起</title><desc>材料选择项目的三张样本卡、使用约束和待权衡指标。</desc><rect width="560" height="360" rx="14" fill="#f4f5f2"/><text x="28" y="34" fill="#26303a" font-family="Arial, sans-serif" font-size="16" font-weight="700">把样本和约束摆在一起</text><text x="28" y="55" fill="#65707b" font-family="Arial, sans-serif" font-size="11">固定种子合成数据 · 教学预览 · v1.0</text><rect x="28" y="82" width="504" height="224" rx="12" fill="#fffdf8" stroke="#d8d6cf"/><g transform="translate(52 112)"><rect width="92" height="78" rx="12" fill="#8cb4d9" opacity="0.38"/><circle cx="46" cy="35" r="20" fill="#8cb4d9"/><text x="46" y="65" text-anchor="middle" fill="#171a1f" font-family="Arial, sans-serif" font-size="11" font-weight="700">样本 A</text></g><g transform="translate(168 112)"><rect width="92" height="78" rx="12" fill="#75c4a4" opacity="0.38"/><circle cx="46" cy="35" r="20" fill="#75c4a4"/><text x="46" y="65" text-anchor="middle" fill="#171a1f" font-family="Arial, sans-serif" font-size="11" font-weight="700">样本 B</text></g><g transform="translate(284 112)"><rect width="92" height="78" rx="12" fill="#f09679" opacity="0.38"/><circle cx="46" cy="35" r="20" fill="#f09679"/><text x="46" y="65" text-anchor="middle" fill="#171a1f" font-family="Arial, sans-serif" font-size="11" font-weight="700">样本 C</text></g><rect x="400" y="106" width="106" height="94" rx="4" fill="#f5eadf" transform="rotate(2 453 153)"/><text x="416" y="132" fill="#9a472f" font-family="Arial, sans-serif" font-size="10" font-weight="700">使用约束</text><text x="416" y="153" fill="#59616e" font-family="Arial, sans-serif" font-size="9">潮湿环境</text><text x="416" y="170" fill="#59616e" font-family="Arial, sans-serif" font-size="9">可清洁</text><text x="416" y="187" fill="#59616e" font-family="Arial, sans-serif" font-size="9">预算有限</text><text x="52" y="230" fill="#171a1f" font-family="Arial, sans-serif" font-size="11" font-weight="700">先写权衡，不急着选“最好”</text><rect x="52" y="247" width="104" height="24" rx="12" fill="#e8eef5"/><text x="104" y="263" text-anchor="middle" fill="#355c7d" font-family="Arial, sans-serif" font-size="9">灵敏度</text><rect x="166" y="247" width="104" height="24" rx="12" fill="#e6f0eb"/><text x="218" y="263" text-anchor="middle" fill="#2e7d61" font-family="Arial, sans-serif" font-size="9">耐久性</text><rect x="280" y="247" width="104" height="24" rx="12" fill="#f5eadf"/><text x="332" y="263" text-anchor="middle" fill="#9a472f" font-family="Arial, sans-serif" font-size="9">测试成本</text></svg>